<svg xmlns="http://www.w3.org/2000/svg" xmlns:xlink="http://www.w3.org/1999/xlink" version="1.1" x="0px" y="0px" viewBox="0 0 64 80" style="enable-background:new 0 0 64 64;" xml:space="preserve"><g><path d="M31.593,21.859L21,30.528v0.474c0,1.858,1.28,3.41,3,3.857V47h20.001V34.858C45.721,34.41,47,32.858,47,31v-0.474   l-10.593-8.667C35.053,20.751,32.947,20.751,31.593,21.859z M36,45h-4v-6h4V45z M38,45v-8h-8v8h-4V35h16.001v10H38z M43.001,33   H24.999c-0.953,0-1.752-0.67-1.951-1.563l9.812-8.029c0.642-0.525,1.64-0.525,2.281,0l9.812,8.028   C44.754,32.33,43.955,33,43.001,33z"/><path d="M34,57c-1.654,0-3,1.346-3,3s1.346,3,3,3s3-1.346,3-3S35.654,57,34,57z M34,61c-0.551,0-1-0.449-1-1s0.449-1,1-1   s1,0.449,1,1S34.551,61,34,61z"/><path d="M29.05,55.05l1.414,1.414c1.949-1.949,5.122-1.949,7.071,0l1.414-1.414C36.22,52.321,31.78,52.321,29.05,55.05z"/><path d="M26.222,52.222l1.414,1.414c3.51-3.509,9.219-3.509,12.729,0l1.414-1.414C37.489,47.933,30.511,47.933,26.222,52.222z"/><path d="M30,14.333V16c0,1.654,1.346,3,3,3h2c1.654,0,3-1.346,3-3v-1.667l1.6-2.133C40.503,10.997,41,9.505,41,8c0-3.86-3.14-7-7-7   s-7,3.14-7,7c0,1.505,0.497,2.997,1.4,4.2L30,14.333z M35,17h-2c-0.551,0-1-0.449-1-1v-1h4v1C36,16.551,35.551,17,35,17z M33,8   c0-0.551,0.449-1,1-1s1,0.449,1,1s-0.449,1-1,1S33,8.551,33,8z M34,3c2.757,0,5,2.243,5,5c0,1.075-0.355,2.141-1,3l-1.5,2H35   v-2.184c1.161-0.414,2-1.514,2-2.816c0-1.654-1.346-3-3-3s-3,1.346-3,3c0,1.302,0.839,2.402,2,2.816V13h-1.5L30,11   c-0.645-0.859-1-1.925-1-3C29,5.243,31.243,3,34,3z"/><path d="M18.274,27.546l-3.82-3.82l-1.273,0.595L12.701,23H7.299l-0.48,1.321l-1.273-0.595l-3.82,3.82l0.595,1.273L1,29.299v5.401   l1.321,0.48l-0.595,1.273l3.82,3.82l1.273-0.595L7.299,41h5.401l0.48-1.321l1.273,0.595l3.82-3.82l-0.595-1.273L19,34.701v-5.401   l-1.321-0.48L18.274,27.546z M17,33.299l-0.823,0.299l-0.448,0.214l-0.422,1.019l0.561,1.201l-1.837,1.837l-1.201-0.561   l-1.079,0.447L11.299,39H8.701l-0.299-0.823l-0.214-0.448l-1.019-0.422l-1.201,0.561l-1.837-1.837l0.561-1.201l-0.447-1.079   L3,33.299v-2.599l0.823-0.299l0.448-0.214l0.422-1.019l-0.561-1.201l1.837-1.837l1.202,0.562l1.077-0.447L8.701,25h2.599   l0.299,0.823l0.212,0.447l1.019,0.423l1.202-0.562l1.837,1.837l-0.561,1.201l0.447,1.079L17,30.701V33.299z"/><path d="M10,27c-2.757,0-5,2.243-5,5s2.243,5,5,5s5-2.243,5-5S12.757,27,10,27z M10,35c-1.654,0-3-1.346-3-3s1.346-3,3-3   s3,1.346,3,3S11.654,35,10,35z"/><path d="M62.261,31.286l-3.919-7.838C57.896,22.555,56.999,22,56,22s-1.896,0.555-2.342,1.447l-3.919,7.839   C49.255,32.253,49,33.335,49,34.417V35c0,3.86,3.14,7,7,7s7-3.14,7-7v-0.583C63,33.335,62.745,32.253,62.261,31.286z M61,35   c0,2.757-2.243,5-5,5s-5-2.243-5-5v-0.583c0-0.772,0.183-1.545,0.528-2.236l3.919-7.838v0C55.553,24.131,55.764,24,56,24   s0.447,0.131,0.553,0.342l3.919,7.838C60.817,32.871,61,33.645,61,34.417V35z"/></g><text x="0" y="79" fill="#000000" font-size="5px" font-weight="bold" font-family="'Helvetica Neue', Helvetica, Arial-Unicode, Arial, Sans-serif">Created by Eucalyp</text><text x="0" y="84" fill="#000000" font-size="5px" font-weight="bold" font-family="'Helvetica Neue', Helvetica, Arial-Unicode, Arial, Sans-serif">from the Noun Project</text></svg>